<svg
        xmlns="http://www.w3.org/2000/svg" xmlns:xlink="http://www.w3.org/1999/xlink"
        version="1.1" x="0px" y="0px"
        viewBox="0 0 100 100"
        enable-background="new 0 0 100 100" xml:space="preserve"
        style="width:32px">
    <g>

        <path fill="#76BED6" d="M50.729,2.906C49.895,2.828,7.435-0.909,18.203,54.582c0,0,4.359,20.375,5.886,24.848   c0,0,3.114,8.529,3.851,9.775c0,0,2.716,3.795,8.036,4.795c0,0,12.024,3,29.505,0c5.52-1,8.036-4.795,8.036-4.795   c0.736-1.246,3.85-9.783,3.85-9.783c1.527-4.473,5.885-24.844,5.885-24.844C94.021-0.913,51.562,2.828,50.729,2.906z    M79.946,49.971l-0.101,0.255c-0.151,0.272-3.781,6.66-9.943,6.701l-2.061,0.102c0.562,1.089,1.095,2.643,0.946,4.474   c0.072,0.615,0.126,2.627-1.584,5.44c0.887,0.688,2.019,1.996,2.56,4.386c0.047,0.233,1.015,5.185-1.561,9.168   c-0.365,0.871-2.452,4.688-10.959,6.098C56.977,86.621,52.349,87,50.842,87h-0.003h-0.023c-1.533,0-6.162-0.379-6.357-0.398   c-8.572-1.418-10.664-5.271-11.03-6.143c-2.574-3.982-1.607-8.916-1.565-9.126c0.544-2.403,1.678-3.709,2.563-4.398   c-1.711-2.814-1.655-4.821-1.583-5.436c-0.147-1.832,0.385-3.385,0.946-4.472l-2.104-0.104c-6.117-0.04-9.748-6.427-9.899-6.699   l-0.101-0.254c-0.969-3.839-0.246-9.095-0.215-9.317c0.382-3.566,1.389-5.686,1.829-6.467c-0.06-1.649,0.327-5.596,0.412-6.432   c1.377-8.474,4.764-10.248,5.146-10.423l2.223-1.018l-0.783,2.316c-1.633,4.828,1.273,9.131,1.303,9.174   c2.391,3.818,6.796,4.226,8.581,4.226c0.444,0,0.72-0.025,0.746-0.028c1.552-0.159,2.393-0.732,2.401-0.739l1.658-1.153   l0.011,4.283c0.606,3.199,4.78,3.597,4.96,3.613l1.489-0.003C51.537,37.99,55,37.591,56,34.393v-4.349l1.996,1.227   c0,0,1,0.573,2.549,0.731c0.141,0.014,6.429,0.562,9.384-4.159c0.054-0.08,2.99-4.416,1.368-9.213l-0.766-2.316l2.234,1.018   c0.381,0.175,3.772,1.95,5.141,10.36c0.091,0.894,0.483,4.845,0.423,6.495c0.44,0.782,1.451,2.908,1.835,6.501   C80.191,40.875,80.915,46.132,79.946,49.971z"></path>
        <path fill="#BE1A10" d="M78.069,40.948c-0.428-3.999-1.673-5.887-1.686-5.906l-0.221-0.328l0.045-0.398   c0.103-0.816-0.186-4.327-0.391-6.348c-0.466-2.859-1.177-4.82-1.868-6.147c-0.04,4.021-2.064,7.02-2.177,7.182   c-3.723,5.949-11.287,5.101-11.287,5.101c-0.678-0.07-1.257-0.2-1.737-0.349l-0.015,0.907c-0.825,4.9-6.637,5.429-6.884,5.449   l-2.102,0.003C43.117,39.92,43,34.486,43,34.486v-0.732c-1,0.149-1.121,0.28-1.801,0.349c0.002,0-7.588,0.85-11.336-5.14   c-0.092-0.132-2.125-3.121-2.166-7.135c-0.693,1.335-1.417,3.314-1.886,6.202c-0.197,1.958-0.486,5.469-0.385,6.286l0.048,0.4   l-0.23,0.332c-0.008,0.013-1.253,1.901-1.678,5.865c-0.012,0.083-0.682,4.969,0.131,8.396c0.481,0.793,3.519,5.476,8.047,5.505   l6.239,0.306l-1.518,1.657c-0.014,0.017-1.768,2.001-1.51,4.649l0.016,0.151l-0.03,0.15c0.001,0.001-0.262,1.848,1.64,4.662   l1.37,1.356l-1.679,0.522c-0.051,0.019-1.69,0.631-2.345,3.525c-0.003,0.019-0.837,4.372,1.322,7.629l0.127,0.265   c0.007,0.018,1.368,3.553,9.354,4.877c0.025,0,4.664,0.435,6.07,0.435h0.027c1.413,0,6.095-0.439,6.142-0.443   c7.913-1.315,9.275-4.859,9.289-4.896l0.121-0.24c2.174-3.277,1.326-7.607,1.317-7.65c-0.656-2.902-2.322-3.495-2.339-3.499   l-1.674-0.521l1.364-1.358c1.901-2.815,1.638-4.662,1.635-4.681l-0.021-0.132l0.011-0.152c0.262-2.679-1.492-4.629-1.51-4.647   l-1.519-1.658l6.197-0.304c4.568-0.031,7.608-4.715,8.09-5.507C78.748,45.875,78.077,40.998,78.069,40.948z M51.029,48.821   c0,0,1.82-0.039,2.943,0.97c0,0,4.572,2.828,7.71,10.072c0,0,1.473,2.675-1.007,4.379c0,0-3.292,1.471-5.657,1.355l-3.989,0.006   l-3.989-0.006c-2.364,0.115-5.657-1.355-5.657-1.355c-2.479-1.704-1.008-4.379-1.008-4.379c3.138-7.244,7.71-10.072,7.71-10.072   C49.209,48.782,51.029,48.821,51.029,48.821z M29.159,46.884c0,0-3.312-2.034-0.697-6.975c0,0,1.279-1.452,3.08-1.976   c0,0,5.695-0.116,10.461,1.453c0,0,2.847,0.929,3.603,1.511c0,0,1.331,1.543,0.523,3.022c0,0-1.57,3.312-3.139,4.125   C42.99,48.045,38.748,51.125,29.159,46.884z M61.132,76.297c0,0-1.918,0.703-3.022,0.703h-4.833h-4.872h-4.832   c-1.104,0-3.022-0.703-3.022-0.703c-1.743-0.232-1.454-2.207-1.454-2.207C39.62,72.057,42.119,72,42.119,72h7.507h2.43h7.507   c0,0,2.499,0.057,3.021,2.09C62.584,74.09,62.875,76.064,61.132,76.297z M72.466,46.884c-9.59,4.241-13.832,1.161-13.832,1.161   c-1.569-0.813-3.139-4.125-3.139-4.125c-0.808-1.479,0.523-3.022,0.523-3.022c0.755-0.582,3.604-1.511,3.604-1.511   c4.765-1.569,10.46-1.453,10.46-1.453c1.802,0.524,3.08,1.976,3.08,1.976C75.777,44.85,72.466,46.884,72.466,46.884z"></path>
        <path fill="#000000" stroke="#B44D9D" stroke-miterlimit="10" d="M51.301,39.058"></path>
    </g>
</svg>
